<svg width="118" height="32" viewBox="0 0 118 32" fill="none" xmlns="http://www.w3.org/2000/svg">
<g clip-path="url(#clip0_2_2)">
<g filter="url(#filter0_d_2_2)">
<path d="M24.68 29.96H20.72V8.32L23.2 5.88H19.96L14.64 16.16H11.76L6.64 5.88H3.44L5.92 8.32V29.96H1.96V2.36H9.04L13.16 11.44H13.64L17.84 2.36H24.68V29.96ZM36.065 5.84H32.105V1.88H36.065V5.84ZM36.065 30H32.105V12.28L36.065 8.28V30ZM57.2444 30H53.3244V12.72H46.9244V30H42.9644V9.24H46.9244V12.24L49.8444 9.24H53.8044L57.2444 12.72V30ZM77.2609 30H73.3009V27.04L70.3409 30H66.3809L62.9409 26.52V19.64L66.3809 16.16H72.9009L69.6209 19.6H66.8609V26.52H73.3009V12.72H62.4209L65.3809 9.24H73.8209L77.2609 12.72V30ZM97.7409 16.16L93.7809 20.12V12.72H87.9009V30H83.9409V9.24H87.9009V12.24L90.7809 9.24H94.3009L97.7409 12.72V16.16ZM116.337 30H105.497L102.057 26.52V12.72L105.497 9.24H112.897L116.337 12.72V19.64L112.897 23.08H106.497L110.017 19.64H112.417V12.72H106.017V26.52H116.337V30Z" fill="#C27D57"/>
<path d="M24.68 29.96V30.96H25.68V29.96H24.68ZM20.72 29.96H19.72V30.96H20.72V29.96ZM20.72 8.32L20.0187 7.60717L19.72 7.90101V8.32H20.72ZM23.2 5.88L23.9013 6.59283L25.6422 4.88H23.2V5.88ZM19.96 5.88V4.88H19.3515L19.0719 5.42039L19.96 5.88ZM14.64 16.16V17.16H15.2485L15.5281 16.6196L14.64 16.16ZM11.76 16.16L10.8649 16.6058L11.1409 17.16H11.76V16.16ZM6.64 5.88L7.53512 5.43418L7.25911 4.88H6.64V5.88ZM3.44 5.88V4.88H0.997754L2.73867 6.59283L3.44 5.88ZM5.92 8.32H6.92V7.90101L6.62134 7.60717L5.92 8.32ZM5.92 29.96V30.96H6.92V29.96H5.92ZM1.96 29.96H0.96V30.96H1.96V29.96ZM1.96 2.36V1.36H0.96V2.36H1.96ZM9.04 2.36L9.95064 1.9468L9.68438 1.36H9.04V2.36ZM13.16 11.44L12.2494 11.8532L12.5156 12.44H13.16V11.44ZM13.64 11.44V12.44H14.2792L14.5476 11.8598L13.64 11.44ZM17.84 2.36V1.36H17.2008L16.9324 1.94018L17.84 2.36ZM24.68 2.36H25.68V1.36H24.68V2.36ZM24.68 28.96H20.72V30.96H24.68V28.96ZM21.72 29.96V8.32H19.72V29.96H21.72ZM21.4213 9.03283L23.9013 6.59283L22.4987 5.16717L20.0187 7.60717L21.4213 9.03283ZM23.2 4.88H19.96V6.88H23.2V4.88ZM19.0719 5.42039L13.7519 15.7004L15.5281 16.6196L20.8481 6.33961L19.0719 5.42039ZM14.64 15.16H11.76V17.16H14.64V15.16ZM12.6551 15.7142L7.53512 5.43418L5.74488 6.32582L10.8649 16.6058L12.6551 15.7142ZM6.64 4.88H3.44V6.88H6.64V4.88ZM2.73867 6.59283L5.21867 9.03283L6.62134 7.60717L4.14133 5.16717L2.73867 6.59283ZM4.92 8.32V29.96H6.92V8.32H4.92ZM5.92 28.96H1.96V30.96H5.92V28.96ZM2.96 29.96V2.36H0.96V29.96H2.96ZM1.96 3.36H9.04V1.36H1.96V3.36ZM8.12936 2.7732L12.2494 11.8532L14.0706 11.0268L9.95064 1.9468L8.12936 2.7732ZM13.16 12.44H13.64V10.44H13.16V12.44ZM14.5476 11.8598L18.7476 2.77982L16.9324 1.94018L12.7324 11.0202L14.5476 11.8598ZM17.84 3.36H24.68V1.36H17.84V3.36ZM23.68 2.36V29.96H25.68V2.36H23.68ZM36.065 5.84V6.84H37.065V5.84H36.065ZM32.105 5.84H31.105V6.84H32.105V5.84ZM32.105 1.88V0.88H31.105V1.88H32.105ZM36.065 1.88H37.065V0.88H36.065V1.88ZM36.065 30V31H37.065V30H36.065ZM32.105 30H31.105V31H32.105V30ZM32.105 12.28L31.3943 11.5765L31.105 11.8687V12.28H32.105ZM36.065 8.28H37.065V5.84852L35.3543 7.57645L36.065 8.28ZM36.065 4.84H32.105V6.84H36.065V4.84ZM33.105 5.84V1.88H31.105V5.84H33.105ZM32.105 2.88H36.065V0.88H32.105V2.88ZM35.065 1.88V5.84H37.065V1.88H35.065ZM36.065 29H32.105V31H36.065V29ZM33.105 30V12.28H31.105V30H33.105ZM32.8157 12.9835L36.7757 8.98354L35.3543 7.57645L31.3943 11.5765L32.8157 12.9835ZM35.065 8.28V30H37.065V8.28H35.065ZM57.2444 30V31H58.2444V30H57.2444ZM53.3244 30H52.3244V31H53.3244V30ZM53.3244 12.72H54.3244V11.72H53.3244V12.72ZM46.9244 12.72V11.72H45.9244V12.72H46.9244ZM46.9244 30V31H47.9244V30H46.9244ZM42.9644 30H41.9644V31H42.9644V30ZM42.9644 9.24V8.24H41.9644V9.24H42.9644ZM46.9244 9.24H47.9244V8.24H46.9244V9.24ZM46.9244 12.24H45.9244V14.7011L47.641 12.9375L46.9244 12.24ZM49.8444 9.24V8.24H49.4222L49.1278 8.54251L49.8444 9.24ZM53.8044 9.24L54.5156 8.53699L54.222 8.24H53.8044V9.24ZM57.2444 12.72H58.2444V12.3092L57.9556 12.017L57.2444 12.72ZM57.2444 29H53.3244V31H57.2444V29ZM54.3244 30V12.72H52.3244V30H54.3244ZM53.3244 11.72H46.9244V13.72H53.3244V11.72ZM45.9244 12.72V30H47.9244V12.72H45.9244ZM46.9244 29H42.9644V31H46.9244V29ZM43.9644 30V9.24H41.9644V30H43.9644ZM42.9644 10.24H46.9244V8.24H42.9644V10.24ZM45.9244 9.24V12.24H47.9244V9.24H45.9244ZM47.641 12.9375L50.561 9.93749L49.1278 8.54251L46.2078 11.5425L47.641 12.9375ZM49.8444 10.24H53.8044V8.24H49.8444V10.24ZM53.0932 9.94301L56.5332 13.423L57.9556 12.017L54.5156 8.53699L53.0932 9.94301ZM56.2444 12.72V30H58.2444V12.72H56.2444ZM77.2609 30V31H78.2609V30H77.2609ZM73.3009 30H72.3009V31H73.3009V30ZM73.3009 27.04H74.3009V24.6258L72.5938 26.3329L73.3009 27.04ZM70.3409 30V31H70.7552L71.048 30.7071L70.3409 30ZM66.3809 30L65.6698 30.703L65.9633 31H66.3809V30ZM62.9409 26.52H61.9409V26.9308L62.2298 27.223L62.9409 26.52ZM62.9409 19.64L62.2298 18.937L61.9409 19.2292V19.64H62.9409ZM66.3809 16.16V15.16H65.9633L65.6698 15.457L66.3809 16.16ZM72.9009 16.16L73.6247 16.8501L75.2361 15.16H72.9009V16.16ZM69.6209 19.6V20.6H70.0492L70.3447 20.2901L69.6209 19.6ZM66.8609 19.6V18.6H65.8609V19.6H66.8609ZM66.8609 26.52H65.8609V27.52H66.8609V26.52ZM73.3009 26.52V27.52H74.3009V26.52H73.3009ZM73.3009 12.72H74.3009V11.72H73.3009V12.72ZM62.4209 12.72L61.6592 12.0721L60.2576 13.72H62.4209V12.72ZM65.3809 9.24V8.24H64.9187L64.6192 8.5921L65.3809 9.24ZM73.8209 9.24L74.5321 8.53699L74.2385 8.24H73.8209V9.24ZM77.2609 12.72H78.2609V12.3092L77.9721 12.017L77.2609 12.72ZM77.2609 29H73.3009V31H77.2609V29ZM74.3009 30V27.04H72.3009V30H74.3009ZM72.5938 26.3329L69.6338 29.2929L71.048 30.7071L74.008 27.7471L72.5938 26.3329ZM70.3409 29H66.3809V31H70.3409V29ZM67.0921 29.297L63.6521 25.817L62.2298 27.223L65.6698 30.703L67.0921 29.297ZM63.9409 26.52V19.64H61.9409V26.52H63.9409ZM63.6521 20.343L67.0921 16.863L65.6698 15.457L62.2298 18.937L63.6521 20.343ZM66.3809 17.16H72.9009V15.16H66.3809V17.16ZM72.1772 15.4699L68.8972 18.9099L70.3447 20.2901L73.6247 16.8501L72.1772 15.4699ZM69.6209 18.6H66.8609V20.6H69.6209V18.6ZM65.8609 19.6V26.52H67.8609V19.6H65.8609ZM66.8609 27.52H73.3009V25.52H66.8609V27.52ZM74.3009 26.52V12.72H72.3009V26.52H74.3009ZM73.3009 11.72H62.4209V13.72H73.3009V11.72ZM63.1827 13.3679L66.1427 9.8879L64.6192 8.5921L61.6592 12.0721L63.1827 13.3679ZM65.3809 10.24H73.8209V8.24H65.3809V10.24ZM73.1098 9.94301L76.5498 13.423L77.9721 12.017L74.5321 8.53699L73.1098 9.94301ZM76.2609 12.72V30H78.2609V12.72H76.2609ZM97.7409 16.16L98.448 16.8671L98.7409 16.5742V16.16H97.7409ZM93.7809 20.12H92.7809V22.5342L94.488 20.8271L93.7809 20.12ZM93.7809 12.72H94.7809V11.72H93.7809V12.72ZM87.9009 12.72V11.72H86.9009V12.72H87.9009ZM87.9009 30V31H88.9009V30H87.9009ZM83.9409 30H82.9409V31H83.9409V30ZM83.9409 9.24V8.24H82.9409V9.24H83.9409ZM87.9009 9.24H88.9009V8.24H87.9009V9.24ZM87.9009 12.24H86.9009V14.7256L88.6223 12.9325L87.9009 12.24ZM90.7809 9.24V8.24H90.3547L90.0596 8.54747L90.7809 9.24ZM94.3009 9.24L95.0121 8.53699L94.7185 8.24H94.3009V9.24ZM97.7409 12.72H98.7409V12.3092L98.4521 12.017L97.7409 12.72ZM97.0338 15.4529L93.0738 19.4129L94.488 20.8271L98.448 16.8671L97.0338 15.4529ZM94.7809 20.12V12.72H92.7809V20.12H94.7809ZM93.7809 11.72H87.9009V13.72H93.7809V11.72ZM86.9009 12.72V30H88.9009V12.72H86.9009ZM87.9009 29H83.9409V31H87.9009V29ZM84.9409 30V9.24H82.9409V30H84.9409ZM83.9409 10.24H87.9009V8.24H83.9409V10.24ZM86.9009 9.24V12.24H88.9009V9.24H86.9009ZM88.6223 12.9325L91.5023 9.93253L90.0596 8.54747L87.1796 11.5475L88.6223 12.9325ZM90.7809 10.24H94.3009V8.24H90.7809V10.24ZM93.5898 9.94301L97.0298 13.423L98.4521 12.017L95.0121 8.53699L93.5898 9.94301ZM96.7409 12.72V16.16H98.7409V12.72H96.7409ZM116.337 30V31H117.337V30H116.337ZM105.497 30L104.785 30.703L105.079 31H105.497V30ZM102.057 26.52H101.057V26.9308L101.345 27.223L102.057 26.52ZM102.057 12.72L101.345 12.017L101.057 12.3092V12.72H102.057ZM105.497 9.24V8.24H105.079L104.785 8.53699L105.497 9.24ZM112.897 9.24L113.608 8.53699L113.314 8.24H112.897V9.24ZM116.337 12.72H117.337V12.3092L117.048 12.017L116.337 12.72ZM116.337 19.64L117.044 20.3471L117.337 20.0542V19.64H116.337ZM112.897 23.08V24.08H113.311L113.604 23.7871L112.897 23.08ZM106.497 23.08L105.798 22.3648L104.043 24.08H106.497V23.08ZM110.017 19.64V18.64H109.609L109.318 18.9248L110.017 19.64ZM112.417 19.64V20.64H113.417V19.64H112.417ZM112.417 12.72H113.417V11.72H112.417V12.72ZM106.017 12.72V11.72H105.017V12.72H106.017ZM106.017 26.52H105.017V27.52H106.017V26.52ZM116.337 26.52H117.337V25.52H116.337V26.52ZM116.337 29H105.497V31H116.337V29ZM106.208 29.297L102.768 25.817L101.345 27.223L104.785 30.703L106.208 29.297ZM103.057 26.52V12.72H101.057V26.52H103.057ZM102.768 13.423L106.208 9.94301L104.785 8.53699L101.345 12.017L102.768 13.423ZM105.497 10.24H112.897V8.24H105.497V10.24ZM112.185 9.94301L115.625 13.423L117.048 12.017L113.608 8.53699L112.185 9.94301ZM115.337 12.72V19.64H117.337V12.72H115.337ZM115.629 18.9329L112.189 22.3729L113.604 23.7871L117.044 20.3471L115.629 18.9329ZM112.897 22.08H106.497V24.08H112.897V22.08ZM107.195 23.7952L110.715 20.3552L109.318 18.9248L105.798 22.3648L107.195 23.7952ZM110.017 20.64H112.417V18.64H110.017V20.64ZM113.417 19.64V12.72H111.417V19.64H113.417ZM112.417 11.72H106.017V13.72H112.417V11.72ZM105.017 12.72V26.52H107.017V12.72H105.017ZM106.017 27.52H116.337V25.52H106.017V27.52ZM115.337 26.52V30H117.337V26.52H115.337Z" fill="#C27D57"/>
</g>
</g>
<defs>
<filter id="filter0_d_2_2" x="-2.03999" y="1.88" width="122.377" height="36.12" filterUnits="userSpaceOnUse" color-interpolation-filters="sRGB">
<feFlood flood-opacity="0" result="BackgroundImageFix"/>
<feColorMatrix in="SourceAlpha" type="matrix" values="0 0 0 0 0 0 0 0 0 0 0 0 0 0 0 0 0 0 127 0" result="hardAlpha"/>
<feOffset dy="4"/>
<feGaussianBlur stdDeviation="2"/>
<feComposite in2="hardAlpha" operator="out"/>
<feColorMatrix type="matrix" values="0 0 0 0 0 0 0 0 0 0 0 0 0 0 0 0 0 0 0.25 0"/>
<feBlend mode="normal" in2="BackgroundImageFix" result="effect1_dropShadow_2_2"/>
<feBlend mode="normal" in="SourceGraphic" in2="effect1_dropShadow_2_2" result="shape"/>
</filter>
<clipPath id="clip0_2_2">
<rect width="118" height="32" fill="white"/>
</clipPath>
</defs>
</svg>
